<svg height="512" viewBox="0 0 60 60" width="512" xmlns="http://www.w3.org/2000/svg"><g id="Colour"><path d="m41 47.89v11.11h-22v-8.84c1.73-.85 2.86-2.09 3.6-3.34.81 2.82 2.76 6.18 7.4 6.18 8 0 8-10 8-10h.01c-.01.1-.01.21-.01.31 0 1.09.36 2.13.98 2.97.51.69 1.2 1.25 2.02 1.61z" fill="#f0c000"/><path d="m58.47 36.93c-.87 2.15-2.61 3.58-4.42 3.87 1.19 1.51 1.46 3.94.53 6.23-1.02 2.51-3.19 4.07-5.23 3.96-.53-.49-1.16-.86-1.88-1.08l-5.94-1.82c-.18-.06-.36-.12-.53-.2-.82-.36-1.51-.92-2.02-1.61-.62-.84-.98-1.88-.98-2.97 0-.1 0-.21.01-.31.03-1.43.27-2.84.72-4.19l1.34-4.01c.15-.46.29-.93.41-1.4.35-1.41.52-2.86.52-4.32v-.1h.01c.53.63 1.23 1.02 2 1.02 1.66 0 3-1.79 3-4s-1.34-4-3-4c-.77 0-1.48.39-2.01 1.03v-1.03c0-2.07-.79-3.96-2.08-5.38-.55-.6-1.18-1.12-1.9-1.53-.15-.09-.3-.17-.45-.25s-.31-.15-.47-.22c-.95-.4-2-.62-3.1-.62h-.21c-1.16 0-2.1.98-2 2.14.15 1.71-.86 3.25-2.39 4.2-.75.47-1.11 1.36-.89 2.23.48 1.85.86 4.89-1.17 6.63-.53.46-.74 1.18-.61 1.85.02.18.07.35.15.52.52 1.1 1.06 2.67 1.07 4.39.01 1.82-.57 3.8-2.42 5.57-.33.32-.53.75-.58 1.21-.11.9-.42 2.51-1.35 4.08-.74 1.25-1.87 2.49-3.6 3.34-1.93.94-4.62 1.39-8.35.83-2.02-.3-4.21-1.45-5.23-3.96-.93-2.29-.66-4.72.53-6.23-1.81-.29-3.55-1.72-4.42-3.87-1.23-3.05-.24-6.4 2.22-7.46.06-.03.13-.05.2-.08-1.97-1.12-3.01-3.84-2.35-6.62.52-2.2 1.97-3.87 3.68-4.49-1.1-2.14-.89-5.12.76-7.58 2.13-3.18 5.87-4.33 8.51-2.71.08-2.69 2.6-5.43 6.22-6.48 4.19-1.22 8.25.27 9.08 3.33.1.37.15.75.15 1.12 0-.37.05-.75.15-1.12.83-3.06 4.89-4.55 9.08-3.33 1.54.45 2.87 1.19 3.91 2.13-.71.2-1.34.67-1.74 1.36-.8 1.39-.36 3.13.96 4-1.32.87-1.76 2.61-.96 4 .21.36.48.66.79.89.89.67 2.11.81 3.16.28.08 1.57 1.38 2.83 2.98 2.83s2.89-1.26 2.98-2.83c1.33.67 2.95.27 3.8-.94.5 1.78.35 3.61-.39 5.05 1.71.62 3.16 2.29 3.68 4.49.66 2.78-.38 5.5-2.35 6.62.07.03.14.05.2.08 2.46 1.06 3.45 4.41 2.22 7.46z" fill="#526666"/><path d="m51 54.69v2.31c0 1.1-.9 2-2 2h-8v-11.11c.17.08.35.14.53.2l5.94 1.82c.72.22 1.35.59 1.88 1.08 1.03.92 1.65 2.26 1.65 3.7z" fill="#c96946"/><path d="m19 50.16v8.84h-8c-1.1 0-2-.9-2-2v-2.31c0-1.44.62-2.78 1.65-3.7 3.73.56 6.42.11 8.35-.83z" fill="#c96946"/><path d="m35 32c0 .34-.04.68-.1 1.01-.02.12-.05.24-.09.36-.23.83-.67 1.57-1.27 2.17-.91.9-2.16 1.46-3.54 1.46-1.15 0-2.21-.39-3.05-1.04-.01-1.72-.55-3.29-1.07-4.39-.08-.17-.13-.34-.15-.52l.27-.05h8c.55 0 1 .45 1 1z" fill="#ffbcd5"/><path d="m41 22v7.08c0 1.46-.17 2.91-.52 4.32-.12.47-.26.94-.41 1.4l-1.34 4.01c-.45 1.35-.69 2.76-.72 4.19h-.01s0 10-8 10c-4.64 0-6.59-3.36-7.4-6.18.93-1.57 1.24-3.18 1.35-4.08.05-.46.25-.89.58-1.21 1.85-1.77 2.43-3.75 2.42-5.57.84.65 1.9 1.04 3.05 1.04 1.38 0 2.63-.56 3.54-1.46.6-.6 1.04-1.34 1.27-2.17.04-.12.07-.24.09-.36.06-.33.1-.67.1-1.01 0-.55-.45-1-1-1h-8l-.27.05c-.13-.67.08-1.39.61-1.85 2.03-1.74 1.65-4.78 1.17-6.63-.22-.87.14-1.76.89-2.23 1.53-.95 2.54-2.49 2.39-4.2-.1-1.16.84-2.14 2-2.14h.21c1.1 0 2.15.22 3.1.62.16.07.32.14.47.22s.3.16.45.25c.72.41 1.35.93 1.9 1.53 1.29 1.42 2.08 3.31 2.08 5.38z" fill="#c96946"/><path d="m46.01 26c0 2.21-1.34 4-3 4-.77 0-1.47-.39-2-1.02h-.01v-5.95c.53-.64 1.24-1.03 2.01-1.03 1.66 0 3 1.79 3 4z" fill="#c96946"/><path d="m54.29 9c1.33-.87 1.77-2.61.97-4s-2.54-1.88-3.95-1.17c-.09-1.57-1.38-2.83-2.98-2.83s-2.9 1.26-2.98 2.83c-.71-.35-1.5-.41-2.21-.19-.71.2-1.34.67-1.74 1.36-.8 1.39-.36 3.13.96 4-1.32.87-1.76 2.61-.96 4 .21.36.48.66.79.89.89.67 2.11.81 3.16.28.08 1.57 1.38 2.83 2.98 2.83s2.89-1.26 2.98-2.83c1.33.67 2.95.27 3.8-.94.05-.07.1-.15.15-.23.8-1.39.36-3.13-.97-4zm-5.96 2c-1.11 0-2-.9-2-2s.89-2 2-2c1.1 0 2 .9 2 2s-.9 2-2 2z" fill="#d93625"/><circle cx="48.33" cy="9" fill="#f0c000" r="2"/><circle cx="35" cy="25" fill="#ecf0f1" r="2"/></g><g id="Icons_copy" fill="#232323"><path d="m37.936 25c-.235-3.523-5.372-3.485-5.592 0-.096 3.779 5.664 3.922 5.592 0zm-4.281 0c-.061-1.836 2.566-1.746 2.408 0-.221 1.362-2.186 1.534-2.408 0z"/><path d="m57.198 29.284c3.305-2.985 2.361-9.168-1.495-11.347.575-1.423.666-2.991.4-4.486.774-1.351.809-3.111-.429-4.488 2.214-2.785-.445-6.959-3.857-6.05-.486-1.465-1.914-2.581-3.488-2.548-1.6-.026-3.043 1.149-3.463 2.655-.367-.089-.745-.122-1.122-.097-3.439-3.393-11.018-4.017-13.739.04-2.673-3.992-10.077-3.482-13.572-.282-1.179.978-2.209 2.311-2.646 3.909-4.502-1.452-9.315 2.677-9.986 7.18-.239 1.327-.165 2.738.294 4.054-.88.503-1.614 1.208-2.168 2.012-1.949 2.772-1.965 7.053.487 9.459-3.96 2.991-2.322 10.318 2.298 12.022-1.577 3.309-.201 7.629 2.958 9.45.462.22.954.403 1.458.568-.631.926-1.002 2.025-1.029 3.148-.008.416.017 1.639.009 2.03-.206 1.717 1.138 3.412 2.929 3.353 7.458-.078 25.305-.132 32.972-.148.844.011 3.193-.025 3.997-.009.422 0 1.041.013 1.45-.044 1.202-.19 2.174-1.266 2.235-2.481.012-.996.007-1.773-.004-2.742-.033-.946-.332-1.855-.814-2.654.823-.205 1.582-.604 2.219-1.102 2.715-2.159 3.844-6.277 2.281-9.399 3.508-1.488 5.209-6.015 3.808-9.541-.375-.971-1.091-1.875-1.983-2.461zm-12.128-24.907c.376.201.867-.075.883-.505.035-.606.308-1.189.748-1.601 1.654-1.474 3.935-.247 3.988 1.87.165.349.591.486.931.305.529-.252 1.143-.292 1.69-.115 1.405.397 1.993 2.257 1.069 3.373-.361.399-.929.731-1.022 1.295.071.544.658.909.958 1.34 1.146 1.673-.733 3.865-2.565 2.956-.128-.067-.268-.107-.421-.112-.531-.018-.976.398-.993.929-.018 1.056-.944 1.975-2.009 1.977-1.093.04-2.088-.867-2.16-1.968-.006-.586-.681-.986-1.195-.69-2.536 1.307-4.567-2.326-2.231-3.897.377-.25.369-.847-.021-1.083-1.679-.993-1.297-3.736.589-4.24.579-.183 1.223-.109 1.76.166zm-34.236 53.74c-.496-.068-.909-.524-.941-1.018l.004-1.253c-.077-1.449.13-2.997 1.236-4.021 2.268.383 4.706.248 6.87-.496.036 1.09.263 2.312.341 3.251.084 1.204.073 2.409-.127 3.613-.875-.005-1.718-.011-2.53-.017.128-.888.313-2.175.313-2.175.159-1.514-2.159-1.513-2 0l.311 2.164c-.798-.007-1.568-.014-2.275-.022-.305-.006-.915.006-1.202-.025zm16.76-22.854c-.102-1.171-.401-2.335-.816-3.422 1.946-.153 5.199-.332 7.375-.195.368.165.131.679.115 1.037-.531 3.055-4.273 4.206-6.674 2.581zm-1.176 5.072c.603-.894.956-1.869 1.115-2.876 1.441.683 3.205.685 4.654.035 2.286-.986 3.643-3.4 3.416-5.797-.514-1.994-2.949-1.111-4.426-1.317-1.563.013-3.129-.164-4.691-.224.18-.363.527-.654.819-.968 1.656-1.881 1.373-4.905.824-6.915-.088-.524.155-1.073.6-1.36 1.582-.96 2.847-2.741 2.713-4.677-.01-.127-.018-.391.012-.508.096-.588.664-1.072 1.275-1.088 3.31-.18 6.514 2.141 7.383 5.343.473 1.371.209 3.68.283 5.135l-.006 2.664c-.007.898.016 1.77-.056 2.617-.148 3.689-3.174 9.103-2.949 13.25-.553 3.242-1.841 6.741-5.058 7.975-4.091 1.271-7.497-.646-9.063-4.531.764-1.331 1.231-2.808 1.412-4.326.021-.145.064-.283.128-.409.48-.685 1.212-1.269 1.617-2.024zm-3.959 7.978c.531 1.637 1.468 3.222 3.008 4.299 2.547 1.769 6.063 1.778 8.742.314 2.3-1.404 3.554-3.855 4.055-6.436.415.613.999 1.155 1.779 1.611-.098.856-.021 1.711.043 2.567.261 2.449.475 5.123.099 7.602-6.477-.015-14.047-.033-20.418-.068-.321-1.913-.106-3.951.145-5.832.061-.645.131-1.291.055-1.936.947-.555 1.797-1.255 2.491-2.121zm27.836 8.775c-.038.83-.86 1.304-1.623 1.204-.918-.003-1.936-.006-3-.009.128-.887.328-2.284.328-2.284.159-1.514-2.159-1.513-2 0l.328 2.28c-.805-.002-1.641-.004-2.502-.006-.24-1.61-.26-3.219-.171-4.829.086-1.301.353-3.046.343-4.515 1.422.439 3.454 1.067 4.776 1.476 1.947.431 3.469 2.095 3.527 4.097zm7.181-19.81c-.064-.096-.177-.197-.357-.298-.472-.264-1.139-.517-1.849-.751-.175-.058-.353-.114-.532-.169-1.235-.375-2.516-.658-3.068-.701-.259.047-.344.263-.212.392.077.075.185.156.325.234.49.275 1.176.536 1.905.777.18.06.363.118.547.174 1.088.331 2.207.599 2.927.696.05.007.075-.013.114-.021-.194.3-.408.581-.649.827-.287.337-.597.585-.921.787-.064-.037-.127-.074-.201-.111-.591-.292-1.289-.554-2.011-.795-.19-.064-.382-.125-.575-.185-1.201-.369-2.437-.654-3.319-.778-.27-.001-.379.316-.183.442.108.069.232.143.371.212.628.312 1.362.592 2.123.847.201.067.403.133.606.195.782.241 1.574.449 2.311.604-.423.163-.862.29-1.311.432-.287.207-.395.557-.327.88-.689-.278-1.384-.537-2.091-.757-1.166-.364-2.357-.649-3.57-.856-.281-.049-.415.37-.153.492 1.116.519 2.258.961 3.424 1.325.944.294 1.907.523 2.882.715.34.675.498 1.423.505 2.186-1.082-.529-2.206-.95-3.346-1.309-1.148-.362-2.32-.645-3.515-.851-.281-.049-.415.368-.155.492 1.097.517 2.22.957 3.367 1.319s2.317.665 3.515.851c.041.006.08-.006.119-.02-.049.677-.209 1.354-.468 1.992-1.012-.489-2.058-.89-3.122-1.229-1.129-.36-2.283-.642-3.459-.845-.28-.049-.415.366-.157.491 1.077.515 2.181.953 3.31 1.313 1.042.332 2.105.604 3.19.79-.295.583-.673 1.116-1.115 1.568-.667-.281-1.341-.543-2.029-.764-1.11-.358-2.246-.638-3.404-.84-.279-.049-.416.365-.158.49 1.058.513 2.143.949 3.254 1.307.52.168 1.047.315 1.578.448-.675.477-1.443.779-2.195.777l-.005.096c-.274-.206-.559-.397-.868-.55-1.447-.621-3.701-1.159-5.179-1.653-6.931-1.353-4.597-7.345-2.959-12.117.666-1.738 1.033-3.659 1.168-5.568 2.5 1.788 5.625-1.211 5.451-4.272.101-2.278-1.797-5.318-4.491-4.702-.335.086-.633.234-.907.409-.118-4.584-4.273-8.607-8.941-8.329-1.484.021-2.716 1.451-2.519 2.936.085 1.476-.908 2.758-2.141 3.504-.877.553-1.365 1.646-1.196 2.666.201.9.371 1.654.399 2.55.03 1.199-.174 2.382-.947 3.278-.311.355-.755.673-.961 1.123-.575 1.011-.235 2.163.236 3.11.62 1.554.89 3.248.573 4.826-.229 1.189-.829 2.28-1.635 3.178-.319.346-.747.725-.96 1.163-.242.439-.297 1.003-.37 1.494-.216 1.217-.657 2.41-1.312 3.449-2.589 4.239-9.209 4.722-13.381 2.775-2.671-1.461-3.7-5.709-1.864-8.115.382-.463.098-1.229-.506-1.313-3.236-.594-5.049-4.75-3.868-7.694.408-.986 1.078-1.734 2.075-2.107.657-.224.754-1.21.123-1.541-3.425-2.072-2.451-8.171 1.177-9.504.518-.185.761-.8.506-1.289-1.16-2.323-.438-5.352 1.238-7.289 1.551-1.926 4.505-3.099 6.695-1.737.609.401 1.496-.051 1.504-.793.5-4.703 7.139-7.188 11.161-5.338 1.392.625 2.306 1.867 2.312 3.26.015 1.298 1.958 1.322 1.979 0 .514-4.89 7.335-4.583 10.719-2.264-1.555 1.266-1.783 3.798-.369 5.298-2.54 2.533-.084 6.871 3.349 6.23.788 2.545 4.291 3.653 6.345 1.638.43-.397.75-.901.967-1.448.928.182 1.8.023 2.532-.384.09 1.041-.07 2.098-.523 3.024-.13.383.074.798.457.929.899.306 1.717.945 2.312 1.764 1.767 2.347 1.679 6.537-1.04 8.116-.442.222-.404.928.07 1.093 1.916.789 2.63 2.721 2.473 4.653-.345-.159-.772-.32-1.237-.471-1.396-.454-3.056-.82-3.305-.775-.402.154-.32.367.037.598s.989.48 1.687.707c.964.314 2.043.582 2.708.705-.134.672-.37 1.322-.696 1.907zm-15.866-10.847c.143-.039.283-.083.4-.103.333-.051.667-.031 1 .14.429.24.954-.271.709-.709-.389-.668-1.091.133-1.709-.087l-.403-.103c-.003-.818-.006-1.66-.006-2.36 1.927-1.386 3.487.851 3.409 2.784.083 1.931-1.468 4.183-3.403 2.801.002-.338.019-.679.005-1.012 0-.366 0-.838-.002-1.352z"/><path d="m51.265 9c-.235-3.523-5.372-3.485-5.592 0-.096 3.779 5.664 3.922 5.592 0zm-1.873 0c-.221 1.362-2.186 1.534-2.408 0-.061-1.836 2.566-1.746 2.408 0z"/></g></svg>